<svg width="73" height="73" viewBox="0 0 73 73" fill="none" xmlns="http://www.w3.org/2000/svg">
<path fill-rule="evenodd" clip-rule="evenodd" d="M59.7208 13.7955C53.7317 7.79962 45.7673 4.49618 37.2817 4.49271C19.7975 4.49271 5.56716 18.7219 5.56034 36.2115C5.55789 41.8024 7.01859 47.2594 9.7946 52.0699L5.29431 68.5074L22.1102 64.0964C26.7434 66.6235 31.96 67.9556 37.269 67.9574H37.2819C54.7643 67.9574 68.9958 53.7268 69.0031 36.2368C69.0062 27.7608 65.7097 19.7911 59.7208 13.7955ZM37.2818 62.6002H37.2711C32.5403 62.5983 27.9001 61.3272 23.852 58.9251L22.8894 58.3538L12.9106 60.9713L15.5742 51.2422L14.9472 50.2445C12.3081 46.0468 10.9142 41.195 10.9163 36.2133C10.9219 21.6766 22.7496 9.85018 37.2925 9.85018C44.3346 9.85237 50.9544 12.5985 55.9323 17.582C60.9101 22.5656 63.6499 29.1898 63.6471 36.2346C63.6411 50.7724 51.8138 62.6002 37.2818 62.6002Z" fill="black"/>
<path fill-rule="evenodd" clip-rule="evenodd" d="M51.7438 42.8539C50.9512 42.4571 47.0543 40.54 46.3278 40.2752C45.6013 40.0108 45.0729 39.8785 44.5446 40.672C44.0163 41.4653 42.4972 43.2507 42.0348 43.7798C41.5726 44.3085 41.1101 44.3751 40.3176 43.978C39.5251 43.5812 36.9712 42.7444 33.9438 40.0441C31.5875 37.9423 29.9969 35.3469 29.5343 34.5532C29.0721 33.7599 29.4851 33.331 29.882 32.9357C30.2385 32.5804 30.6747 32.01 31.071 31.5471C31.4672 31.0845 31.5993 30.7535 31.8635 30.225C32.1278 29.6959 31.9958 29.233 31.7975 28.8364C31.5993 28.4397 30.0142 24.5384 29.3538 22.9511C28.7102 21.4058 28.0569 21.6152 27.5703 21.5906C27.1087 21.5675 26.5796 21.5628 26.0513 21.5628C25.523 21.5628 24.6641 21.7612 23.9377 22.5545C23.2113 23.3481 21.1635 25.2658 21.1635 29.1667C21.1635 33.0681 24.0037 36.837 24.4 37.3658C24.7962 37.895 29.989 45.9005 37.9399 49.3338C39.8309 50.1505 41.3073 50.6381 42.4583 51.0033C44.3571 51.6067 46.085 51.5215 47.4506 51.3174C48.9735 51.0898 52.1401 49.4001 52.8005 47.5488C53.4611 45.6972 53.4611 44.1101 53.2628 43.7797C53.0647 43.4491 52.5363 43.2507 51.7438 42.8539Z" fill="black"/>
</svg>
