<svg width="122" height="122" viewBox="0 0 122 122" fill="none" xmlns="http://www.w3.org/2000/svg">
<path d="M31.1719 41.8529C31.6736 41.85 32.171 41.9462 32.6355 42.1359C33.1 42.3256 33.5225 42.6052 33.8788 42.9585L61.6719 70.7898L89.465 42.9585C90.1829 42.2406 91.1566 41.8373 92.1719 41.8373C93.1872 41.8373 94.1609 42.2406 94.8788 42.9585C95.5967 43.6764 96 44.6501 96 45.6654C96 46.6807 95.5967 47.6544 94.8788 48.3723L64.3788 78.8723C64.0244 79.2296 63.6027 79.5132 63.1381 79.7068C62.6735 79.9004 62.1752 80 61.6719 80C61.1686 80 60.6703 79.9004 60.2057 79.7068C59.7411 79.5132 59.3195 79.2296 58.965 78.8723L28.465 48.3723C28.1077 48.0179 27.8241 47.5962 27.6305 47.1316C27.4369 46.667 27.3373 46.1687 27.3373 45.6654C27.3373 45.1621 27.4369 44.6638 27.6305 44.1992C27.8241 43.7346 28.1077 43.313 28.465 42.9585C28.8213 42.6052 29.2437 42.3256 29.7082 42.1359C30.1728 41.9462 30.6702 41.85 31.1719 41.8529Z" fill="black"/>
</svg>
