<svg width="69" height="69" viewBox="0 0 69 69" fill="none" xmlns="http://www.w3.org/2000/svg">
<path d="M67.6278 67.6278C69.4574 65.7982 69.4574 62.8318 67.6278 61.0022L41.1256 34.5L67.6278 7.99777C69.4574 6.16817 69.4574 3.20181 67.6278 1.37221C65.7982 -0.457389 62.8318 -0.457389 61.0022 1.37221L34.5 27.8745L7.99776 1.3722C6.16816 -0.457399 3.2018 -0.457399 1.3722 1.3722C-0.4574 3.2018 -0.457399 6.16816 1.3722 7.99776L27.8744 34.5L1.37221 61.0022C-0.457389 62.8318 -0.457388 65.7982 1.37221 67.6278C3.20181 69.4574 6.16817 69.4574 7.99777 67.6278L34.5 41.1256L61.0022 67.6278C62.8318 69.4574 65.7982 69.4574 67.6278 67.6278Z" fill="black"/>
</svg>
