<svg width="50" height="51" viewBox="0 0 50 51" fill="none" xmlns="http://www.w3.org/2000/svg">
<path d="M41.6667 7H8.33333C3.75 7 0 10.75 0 15.3333V36.1667C0 40.75 3.75 44.5 8.33333 44.5H41.6667C46.25 44.5 50 40.75 50 36.1667V15.3333C50 10.75 46.25 7 41.6667 7ZM45 19.0833L28.5417 30.125C27.5 30.75 26.25 31.1667 25 31.1667C23.75 31.1667 22.5 30.75 21.4583 30.125L5 19.0833C4.16667 18.4583 3.95833 17.2083 4.58333 16.1667C5.20833 15.3333 6.45833 15.125 7.5 15.75L23.9583 26.7917C24.5833 27.2083 25.625 27.2083 26.25 26.7917L42.7083 15.75C43.75 15.125 45 15.3333 45.625 16.375C46.0417 17.2083 45.8333 18.4583 45 19.0833Z" fill="black"/>
</svg>
