<svg width="90" height="90" viewBox="0 0 90 90" fill="none" xmlns="http://www.w3.org/2000/svg">
<path d="M5 30.141C5 28.4063 6.40629 27 8.14103 27H81.859C83.5937 27 85 28.4063 85 30.141C85 31.8758 83.5937 33.2821 81.859 33.2821H45H8.14103C6.40629 33.2821 5 31.8758 5 30.141Z" fill="black"/>
<path d="M22.7778 45.3974C22.7778 43.6627 24.1841 42.2564 25.9188 42.2564H64.0812C65.8159 42.2564 67.2222 43.6627 67.2222 45.3974C67.2222 47.1322 65.8159 48.5385 64.0812 48.5385H25.9188C24.1841 48.5385 22.7778 47.1322 22.7778 45.3974Z" fill="black"/>
<path d="M36.1111 58.859C36.1111 57.1242 37.5174 55.7179 39.2521 55.7179H50.7479C52.4826 55.7179 53.8889 57.1242 53.8889 58.859C53.8889 60.5937 52.4826 62 50.7479 62H39.2521C37.5174 62 36.1111 60.5937 36.1111 58.859Z" fill="black"/>
</svg>
