<svg width="64" height="64" viewBox="0 0 64 64" fill="none" xmlns="http://www.w3.org/2000/svg">
<path d="M34.8451 54.2665L34.8449 54.2667C34.4722 54.6398 34.0294 54.9356 33.542 55.1369L34.3057 56.9854L33.542 55.1369C33.0546 55.3383 32.5322 55.4413 32.0049 55.44L31.9951 55.44C31.4677 55.4413 30.9453 55.3383 30.4579 55.1369C29.9705 54.9356 29.5277 54.6398 29.1551 54.2667L29.1542 54.2658L8.56181 33.6735C8.56058 33.6722 8.55934 33.671 8.55811 33.6697C7.11916 32.2141 5.98396 30.487 5.21856 28.5886L3.36366 29.3365L5.21856 28.5886C4.45251 26.6887 4.0722 24.6553 4.09979 22.6069H4.09983L4.09992 22.5948C4.11365 20.7375 4.49366 18.9012 5.21818 17.1911C5.94271 15.4809 6.99751 13.9305 8.32216 12.6286C9.64681 11.3268 11.2153 10.299 12.9378 9.60426C14.6602 8.90952 16.5029 8.56141 18.3601 8.5799L18.3801 8.5801L18.4001 8.5799C20.2906 8.56086 22.1656 8.92164 23.914 9.64087C25.6624 10.3601 27.2486 11.4231 28.5784 12.7668L28.5784 12.7669L28.5858 12.7742L30.5858 14.7742L32 16.1884L33.4142 14.7742L35.0542 13.1342L35.0634 13.125L35.0726 13.1156C37.5669 10.5552 40.9045 8.9855 44.4674 8.69723C48.0239 8.40948 51.5642 9.41804 54.4349 11.5363C56.06 12.7913 57.4001 14.377 58.3665 16.1888C59.3359 18.0062 59.9069 20.0093 60.0416 22.0646C60.1763 24.12 59.8716 26.1805 59.1476 28.1088C58.4239 30.0369 57.2977 31.7886 55.8442 33.2474C55.8439 33.2477 55.8436 33.2479 55.8433 33.2482L34.8451 54.2665Z" stroke="black" stroke-width="4"/>
</svg>
