<svg width="90" height="90" viewBox="0 0 90 90" fill="none" xmlns="http://www.w3.org/2000/svg">
<path d="M45 90C47.4853 90 49.5 87.9853 49.5 85.5L49.5 49.5L85.5 49.5C87.9853 49.5 90 47.4853 90 45C90 42.5147 87.9853 40.5 85.5 40.5L49.5 40.5L49.5 4.5C49.5 2.01472 47.4853 8.09655e-08 45 0C42.5147 -8.09655e-08 40.5 2.01472 40.5 4.5L40.5 40.5L4.5 40.5C2.01472 40.5 2.42897e-07 42.5147 0 45C-2.42897e-07 47.4853 2.01472 49.5 4.5 49.5L40.5 49.5L40.5 85.5C40.5 87.9853 42.5147 90 45 90Z" fill="black"/>
</svg>
