<svg width="1250" height="1102" viewBox="0 0 1250 1102" fill="none" xmlns="http://www.w3.org/2000/svg">
<g clip-path="url(#clip0_503_2)">
<path d="M900.483 0C926.933 -2.43217e-07 951.373 14.106 964.598 37.0044L1240.08 513.995C1253.31 536.894 1253.31 565.106 1240.08 588.004L964.598 1065C951.373 1087.89 926.933 1102 900.483 1102H349.517C323.067 1102 298.627 1087.89 285.402 1065L9.91864 588.004C-3.30621 565.106 -3.30622 536.894 9.91863 513.995L285.402 37.0045C298.627 14.106 323.067 5.3096e-06 349.517 5.06638e-06L900.483 0Z" fill="white"/>
<path fill-rule="evenodd" clip-rule="evenodd" d="M1219.02 526.161L943.536 49.1701C934.658 33.7984 918.247 24.3244 900.483 24.3244H349.517C331.752 24.3244 315.342 33.7984 306.464 49.1702L30.9811 526.161C22.1039 541.532 22.1039 560.468 30.9811 575.839L306.464 1052.83C315.342 1068.2 331.752 1077.68 349.517 1077.68H900.483C918.247 1077.68 934.658 1068.2 943.536 1052.83L1219.02 575.839C1227.9 560.468 1227.9 541.532 1219.02 526.161ZM964.598 37.0044C951.373 14.106 926.933 -2.43217e-07 900.483 0L349.517 5.06638e-06C323.067 5.3096e-06 298.627 14.106 285.402 37.0045L9.91863 513.995C-3.30622 536.894 -3.30621 565.106 9.91864 588.004L285.402 1065C298.627 1087.89 323.067 1102 349.517 1102H900.483C926.933 1102 951.373 1087.89 964.598 1065L1240.08 588.004C1253.31 565.106 1253.31 536.894 1240.08 513.995L964.598 37.0044Z" fill="#6893C0"/>
<path d="M1069.16 551C1069.16 796.316 870.304 995.184 625 995.184C379.696 995.184 180.838 796.316 180.838 551C180.838 305.684 379.696 106.816 625 106.816C870.304 106.816 1069.16 305.684 1069.16 551Z" fill="#6893C0"/>
<path d="M334.666 89.9907C330.594 97.161 324.607 107.678 321.254 113.653C317.662 119.987 315.626 124.767 316.345 125.484C317.422 126.56 317.782 126.44 348.676 108.275C360.171 101.463 375.738 92.3808 383.162 88.0786C390.467 83.7763 396.574 79.5936 396.574 78.757C396.574 77.562 390.467 77.2035 369.272 77.2035H341.85L334.666 89.9907Z" fill="#0753A1"/>
<path d="M837.563 78.6441C837.563 79.4845 849.152 86.9279 863.275 95.2117C877.277 103.375 895.143 113.82 902.747 118.262C910.352 122.824 917.233 126.186 918.198 125.826C919.888 125.225 920.492 126.186 902.747 94.8516L892.728 77.2035H865.206C843.84 77.2035 837.563 77.5636 837.563 78.6441Z" fill="#0753A1"/>
<path d="M84.2764 530.248C76.8882 542.875 70.8545 553.818 70.8545 554.539C70.8545 555.862 87.1086 583.761 95.1125 596.027C100.407 604.205 101.392 602.401 101.516 584.723C101.639 553.577 100.161 508.121 98.9297 507.64C98.3141 507.52 91.6647 517.621 84.2764 530.248Z" fill="#0753A1"/>
<path d="M1133.95 509.57C1133.58 510.656 1133.58 531.412 1133.95 555.788C1134.44 580.043 1134.81 600.316 1134.81 600.799C1134.81 601.402 1135.55 601.764 1136.41 601.764C1138.01 601.764 1164.34 557.598 1164.34 554.943C1164.34 552.891 1136.9 507.639 1135.67 507.639C1135.18 507.639 1134.44 508.484 1133.95 509.57Z" fill="#0753A1"/>
<path d="M315.161 976.548C314.433 977.631 337.484 1019.87 340.881 1023.96C342.579 1025.88 345.127 1026 369.391 1025.76C388.56 1025.52 396.203 1025.04 396.567 1023.96C396.81 1023.24 390.38 1018.66 382.13 1013.85C373.88 1009.16 362.354 1002.3 356.531 998.809C350.586 995.199 345.612 992.311 345.37 992.311C345.006 992.311 339.91 989.303 333.965 985.813C319.286 976.909 315.889 975.224 315.161 976.548Z" fill="#0753A1"/>
<path d="M896.888 987.797C845.05 1018.03 837.954 1022.31 837.594 1024.1C837.233 1025.88 839.758 1026 864.655 1025.76L892.077 1025.41L897.008 1017.07C908.795 997.08 917.936 980.419 917.936 978.872C917.936 977.919 917.214 977.205 916.492 977.205C915.651 977.205 906.871 981.966 896.888 987.797Z" fill="#0753A1"/>
</g>
<defs>
<clipPath id="clip0_503_2">
<rect width="1250" height="1102" fill="white"/>
</clipPath>
</defs>
</svg>
