<svg width="1250" height="1102" viewBox="0 0 1250 1102" fill="none" xmlns="http://www.w3.org/2000/svg">
<path d="M900.483 0C926.933 -2.43217e-07 951.373 14.106 964.598 37.0044L1240.08 513.995C1253.31 536.894 1253.31 565.106 1240.08 588.004L964.598 1065C951.373 1087.89 926.933 1102 900.483 1102L349.517 1102C323.067 1102 298.627 1087.89 285.402 1065L9.91864 588.004C-3.30621 565.106 -3.30622 536.894 9.91863 513.995L285.402 37.0045C298.627 14.106 323.067 5.3096e-06 349.517 5.06638e-06L900.483 0Z" fill="white"/>
<path fill-rule="evenodd" clip-rule="evenodd" d="M1219.02 526.161L943.536 49.1701C934.658 33.7984 918.247 24.3244 900.483 24.3244L349.517 24.3244C331.752 24.3244 315.342 33.7984 306.464 49.1702L30.9811 526.161C22.1039 541.532 22.1039 560.468 30.9811 575.839L306.464 1052.83C315.342 1068.2 331.752 1077.68 349.517 1077.68L900.483 1077.68C918.247 1077.68 934.658 1068.2 943.536 1052.83L1219.02 575.839C1227.9 560.468 1227.9 541.532 1219.02 526.161ZM964.598 37.0044C951.373 14.106 926.933 -2.43217e-07 900.483 0L349.517 5.06638e-06C323.067 5.3096e-06 298.627 14.106 285.402 37.0045L9.91863 513.995C-3.30622 536.894 -3.30621 565.106 9.91864 588.004L285.402 1065C298.627 1087.89 323.067 1102 349.517 1102L900.483 1102C926.933 1102 951.373 1087.89 964.598 1065L1240.08 588.004C1253.31 565.106 1253.31 536.894 1240.08 513.995L964.598 37.0044Z" fill="#6893C0"/>
<path d="M1069.16 551C1069.16 796.316 870.304 995.184 625 995.184C379.696 995.184 180.838 796.316 180.838 551C180.838 305.684 379.696 106.816 625 106.816C870.304 106.816 1069.16 305.684 1069.16 551Z" fill="#6893C0"/>
<path d="M619.585 481.134C618.13 503.229 614.13 519.253 605.523 537.099C596.432 555.794 588.795 565.506 560.188 594.763C521.761 633.975 512.427 649.878 506.003 688.24C503.942 700.137 503.942 738.135 505.881 751.61C509.518 776.861 517.155 796.163 527.943 807.21L533.572 812.962C533.771 813.166 534.043 813.28 534.328 813.28H714.864C715.302 813.28 715.694 813.011 715.851 812.603L719.469 803.204C729.651 776.618 737.288 746.997 742.137 715.555C745.289 694.553 745.289 633.368 742.137 612.366C734.5 562.835 723.348 525.687 704.802 488.175L695.275 469.094C695.096 468.735 694.73 468.509 694.329 468.509H621.422C620.866 468.509 620.404 468.94 620.367 469.495L619.585 481.134Z" fill="#0753A1"/>
<path fill-rule="evenodd" clip-rule="evenodd" d="M593.205 479.379L593.204 479.397C591.944 498.524 588.672 511.169 581.728 525.576C574.581 540.267 569.417 547.506 541.294 576.268C521.945 596.013 507.958 611.793 498.232 628.542C488.08 646.024 483.421 663.036 479.938 683.81C478.482 692.295 478.019 706.851 478.004 719.301C477.988 732.048 478.448 746.586 479.713 755.377L479.713 755.379C483.669 782.846 492.493 808.751 509.029 825.683L514.676 831.455C519.849 836.74 526.932 839.72 534.328 839.72H714.864C726.238 839.72 736.437 832.717 740.524 822.102L744.15 812.682L744.158 812.661C755.092 784.113 763.168 752.647 768.266 719.584L768.275 719.531L768.283 719.478C770.182 706.824 770.939 684.506 770.939 663.96C770.939 643.414 770.182 621.096 768.283 608.442L768.275 608.389L768.266 608.337C760.298 556.655 748.459 516.824 728.501 476.457L728.478 476.411L718.929 457.283C714.274 447.96 704.749 442.069 694.329 442.069H621.422C606.952 442.069 594.959 453.284 593.988 467.722L593.205 479.379ZM506.003 688.24C512.427 649.878 521.761 633.975 560.188 594.763C588.795 565.506 596.432 555.794 605.523 537.099C614.13 519.253 618.13 503.229 619.585 481.134L620.367 469.495C620.404 468.94 620.866 468.509 621.422 468.509H694.329C694.73 468.509 695.096 468.735 695.275 469.094L704.802 488.175C723.348 525.687 734.5 562.835 742.137 612.366C745.289 633.368 745.289 694.553 742.137 715.555C737.288 746.997 729.651 776.618 719.469 803.204L715.851 812.603C715.694 813.011 715.302 813.28 714.864 813.28H534.328C534.043 813.28 533.771 813.166 533.572 812.962L527.943 807.21C517.155 796.163 509.518 776.861 505.881 751.61C503.942 738.135 503.942 700.137 506.003 688.24Z" fill="white"/>
<path d="M542.513 344.396C542.513 344.489 542.574 344.571 542.663 344.598L551.767 347.361C582.826 356.678 604.885 384.121 616.041 427.391L619.55 441.273C619.574 441.366 619.657 441.432 619.753 441.433L651.917 441.814L684.073 442.068C684.173 442.069 684.259 441.999 684.281 441.902L685.005 438.623C685.258 436.581 686.019 432.113 686.399 428.667C688.554 411.436 696.287 390.12 704.781 377.739C713.021 365.486 724.557 355.913 739.01 349.02L746.361 345.443C746.488 345.381 746.52 345.214 746.424 345.11L737.488 335.363C720.501 317.11 696.541 302.177 675.116 296.688C665.608 294.135 661.425 294.008 603.744 294.008H542.724C542.607 294.008 542.513 294.102 542.513 294.219V344.396Z" fill="#0753A1"/>
<path fill-rule="evenodd" clip-rule="evenodd" d="M544.131 372.673L544.17 372.685C563.179 378.388 580.607 395.905 590.424 433.933L593.919 447.754C596.881 459.471 607.356 467.727 619.44 467.871L651.656 468.252L683.864 468.506C696.448 468.606 707.386 459.889 710.098 447.6L711.089 443.111L711.241 441.88C711.293 441.464 711.39 440.824 711.557 439.712C711.626 439.253 711.707 438.715 711.802 438.079C712.065 436.321 712.404 433.999 712.653 431.789C714.388 418.18 720.817 401.1 726.582 392.696L726.651 392.595L726.72 392.494C732.018 384.615 739.695 377.986 750.39 372.885L750.484 372.84L757.929 369.217C773.958 361.417 777.958 340.382 765.911 327.242L756.909 317.422L756.841 317.349C736.95 295.977 708.784 278.059 681.825 271.114C668.538 267.563 659.612 267.564 608.999 267.568C607.295 267.568 605.544 267.568 603.744 267.568H542.724C528.006 267.568 516.074 279.5 516.074 294.219V344.396C516.074 356.134 523.754 366.491 534.987 369.899L544.131 372.673ZM675.116 296.688C692.482 301.137 711.512 311.79 727.146 325.387C727.358 325.571 727.569 325.756 727.779 325.941C727.903 326.049 728.025 326.158 728.148 326.266C728.154 326.272 728.161 326.278 728.167 326.283C731.448 329.191 734.571 332.228 737.488 335.363L746.424 345.11C746.52 345.214 746.488 345.381 746.361 345.443L739.01 349.02C733.388 351.701 728.208 354.788 723.491 358.28C723.32 358.407 723.15 358.534 722.98 358.661C715.793 364.065 709.7 370.425 704.781 377.739C696.287 390.12 688.554 411.436 686.399 428.667C686.165 430.788 685.787 433.296 685.471 435.387C685.275 436.694 685.102 437.838 685.005 438.623L684.281 441.902C684.259 441.999 684.173 442.069 684.073 442.068L651.917 441.814L619.753 441.433C619.657 441.432 619.574 441.366 619.55 441.273L616.041 427.391C604.885 384.121 582.826 356.678 551.767 347.361L542.663 344.598C542.574 344.571 542.513 344.489 542.513 344.396V294.219C542.513 294.102 542.607 294.008 542.724 294.008H603.744C661.425 294.008 665.608 294.135 675.116 296.688Z" fill="white"/>
<path d="M334.666 89.9907C330.594 97.161 324.607 107.678 321.254 113.653C317.662 119.987 315.626 124.767 316.345 125.484C317.422 126.56 317.782 126.44 348.676 108.275C360.171 101.463 375.738 92.3808 383.162 88.0786C390.467 83.7763 396.574 79.5936 396.574 78.757C396.574 77.562 390.467 77.2035 369.272 77.2035H341.85L334.666 89.9907Z" fill="#0753A1"/>
<path d="M837.563 78.6441C837.563 79.4845 849.152 86.9279 863.275 95.2117C877.277 103.375 895.143 113.82 902.747 118.262C910.352 122.824 917.233 126.186 918.198 125.826C919.888 125.225 920.492 126.186 902.747 94.8516L892.728 77.2035H865.206C843.84 77.2035 837.563 77.5636 837.563 78.6441Z" fill="#0753A1"/>
<path d="M84.2764 530.248C76.8882 542.875 70.8545 553.818 70.8545 554.539C70.8545 555.862 87.1086 583.761 95.1125 596.027C100.407 604.205 101.392 602.401 101.516 584.723C101.639 553.577 100.161 508.121 98.9297 507.64C98.3141 507.52 91.6647 517.621 84.2764 530.248Z" fill="#0753A1"/>
<path d="M1133.95 509.57C1133.58 510.656 1133.58 531.412 1133.95 555.788C1134.44 580.043 1134.81 600.316 1134.81 600.799C1134.81 601.402 1135.55 601.764 1136.41 601.764C1138.01 601.764 1164.34 557.598 1164.34 554.943C1164.34 552.891 1136.9 507.639 1135.67 507.639C1135.18 507.639 1134.44 508.484 1133.95 509.57Z" fill="#0753A1"/>
<path d="M315.161 976.548C314.433 977.631 337.484 1019.87 340.881 1023.96C342.579 1025.88 345.127 1026 369.391 1025.76C388.56 1025.52 396.203 1025.04 396.567 1023.96C396.81 1023.24 390.38 1018.66 382.13 1013.85C373.88 1009.16 362.354 1002.3 356.531 998.809C350.586 995.199 345.612 992.311 345.37 992.311C345.006 992.311 339.91 989.303 333.965 985.813C319.286 976.909 315.889 975.224 315.161 976.548Z" fill="#0753A1"/>
<path d="M896.888 987.797C845.05 1018.03 837.954 1022.31 837.594 1024.1C837.233 1025.88 839.758 1026 864.655 1025.76L892.077 1025.41L897.008 1017.07C908.795 997.08 917.936 980.419 917.936 978.872C917.936 977.919 917.214 977.205 916.492 977.205C915.651 977.205 906.871 981.966 896.888 987.797Z" fill="#0753A1"/>
<path d="M519.247 351.117V285.547H500.773C491.299 285.547 487.983 293.149 487.51 296.951C486.72 307.562 485.615 330.876 487.51 339.238C489.405 347.601 497.141 350.642 500.773 351.117H519.247Z" fill="white"/>
<path d="M534.504 452.871C553.515 412.401 576.175 401.801 586.929 400.259L540.265 351.117C525.286 445.355 504.576 446.454 498.786 458.074C496.481 462.699 496.866 467.132 497.634 469.637C504.547 480.236 526.88 469.099 534.504 452.871Z" fill="white"/>
</svg>
