<svg width="90" height="90" viewBox="0 0 90 90" fill="none" xmlns="http://www.w3.org/2000/svg">
<path d="M61.5905 25.8313C61.0715 26.3579 60.7802 27.0702 60.7802 27.8127C60.7802 28.5552 61.0715 29.2675 61.5905 29.7941L74.4083 42.694L8.78649 42.694C8.04747 42.694 7.33871 42.9901 6.81614 43.5172C6.29357 44.0442 6 44.7591 6 45.5044C6 46.2498 6.29357 46.9647 6.81614 47.4917C7.33871 48.0188 8.04747 48.3149 8.78649 48.3149L74.3247 48.3149L61.5905 61.1586C61.0621 61.6878 60.7637 62.4071 60.7611 63.1582C60.7585 63.9092 61.0518 64.6306 61.5765 65.1635C62.1012 65.6965 62.8144 65.9973 63.559 66C64.3037 66.0026 65.0189 65.7068 65.5473 65.1776L83.2694 47.275C83.7373 46.801 84 46.1593 84 45.4904C84 44.8215 83.7373 44.1798 83.2694 43.7058L65.5473 25.8313C65.2882 25.5679 64.98 25.3588 64.6405 25.2161C64.3009 25.0735 63.9367 25 63.5689 25C63.201 25 62.8368 25.0735 62.4973 25.2161C62.1577 25.3588 61.8495 25.5679 61.5905 25.8313Z" fill="black"/>
</svg>
