<svg width="75" height="75" viewBox="0 0 75 75" fill="none" xmlns="http://www.w3.org/2000/svg">
<g clip-path="url(#clip0_177_1795)">
<path d="M72.8711 13.5027L61.4974 2.12905C60.1246 0.756039 58.2992 0 56.3576 0C54.4161 0 52.5908 0.756039 51.2179 2.12901L3.60746 49.7393C3.15556 50.1912 2.86426 50.7789 2.77839 51.4122L0.0265548 71.6856C-0.0961044 72.5897 0.210544 73.4992 0.855765 74.1443C1.40729 74.6958 2.15191 75 2.92134 75C3.05187 75 3.18324 74.9913 3.31448 74.9734L23.5877 72.2217C24.221 72.1357 24.8087 71.8446 25.2606 71.3925L72.8711 23.7824C74.244 22.4095 75 20.5841 75 18.6426C75 16.701 74.2439 14.8756 72.8711 13.5027ZM21.8256 66.5642L6.33267 68.6671L8.43566 53.1742L42.1737 19.4363L55.5636 32.8264L21.8256 66.5642ZM68.7394 19.6506L59.6953 28.6947L46.3053 15.3047L55.3493 6.26069C55.7128 5.89731 56.137 5.84301 56.3576 5.84301C56.5781 5.84301 57.0024 5.89731 57.3659 6.26069L68.7395 17.6343C69.1029 17.9977 69.1571 18.422 69.1571 18.6425C69.1571 18.863 69.1028 19.2873 68.7394 19.6506Z" fill="black"/>
</g>
<defs>
<clipPath id="clip0_177_1795">
<rect width="75" height="75" fill="white"/>
</clipPath>
</defs>
</svg>
