<svg width="40" height="40" viewBox="0 0 40 40" fill="none" xmlns="http://www.w3.org/2000/svg">
<path d="M38.1737 29.0227C36.5148 27.3182 31.7995 24.125 28.709 24.125C27.9932 24.125 27.3683 24.2841 26.857 24.6136C25.3458 25.5795 24.1414 26.3295 23.562 26.3295C23.2438 26.3295 22.903 26.0455 22.1531 25.3977L22.0281 25.2841C19.9488 23.4773 19.5057 23.0114 18.699 22.1705L18.4945 21.9545C18.3468 21.8068 18.2218 21.6705 18.0968 21.5455C17.3923 20.8182 16.881 20.2955 15.0745 18.25L14.9949 18.1591C14.1314 17.1818 13.5633 16.5455 13.5292 16.0795C13.4951 15.625 13.8928 14.8864 14.904 13.5114C16.1311 11.8523 16.1766 9.80682 15.0517 7.43182C14.1541 5.55682 12.6884 3.76136 11.3931 2.18182L11.2795 2.04545C10.166 0.681818 8.87073 0 7.42774 0C5.82568 0 4.49631 0.863636 3.79186 1.31818C3.73505 1.35227 3.67824 1.39773 3.62143 1.43182C2.04209 2.43182 0.894512 3.80682 0.462751 5.20455C-0.184891 7.30682 -0.616652 10.0341 2.48521 15.7045C5.16668 20.6136 7.59818 23.9091 11.4613 27.875C15.0972 31.6023 16.7106 32.8068 20.3238 35.4205C24.346 38.3295 28.2091 40 30.9133 40C33.4243 40 35.4013 40 38.2191 36.6023C41.1733 33.0341 39.9462 30.8523 38.1737 29.0227Z" fill="black"/>
</svg>
