<svg width="80" height="80" viewBox="0 0 80 80" fill="none" xmlns="http://www.w3.org/2000/svg">
<path fill-rule="evenodd" clip-rule="evenodd" d="M55.2475 59.9636C42.0636 70.394 22.8866 69.2241 11.0764 56.7813C-1.45579 43.5779 -0.947369 22.681 12.212 10.1068C25.3713 -2.46737 46.1984 -1.95725 58.7306 11.2462C70.5408 23.689 70.7696 42.9644 59.7432 55.6678L75.9556 73.4606C77.0925 74.7082 77.0258 76.6351 75.8054 77.8012V77.8012C74.5435 79.007 72.5363 78.9376 71.3607 77.6474L55.2475 59.9636ZM52.3217 52.0639C42.2246 61.712 26.2441 61.3206 16.6282 51.1896C7.01231 41.0587 7.40242 25.0246 17.4995 15.3765C27.5966 5.7284 43.5771 6.11981 53.193 16.2508C62.8089 26.3817 62.4188 42.4158 52.3217 52.0639Z" fill="black"/>
</svg>
