<svg width="34" height="35" viewBox="0 0 34 35" fill="none" xmlns="http://www.w3.org/2000/svg">
<path d="M10.2 27.7C8.33 27.7 6.817 29.23 6.817 31.1C6.817 32.97 8.33 34.5 10.2 34.5C12.07 34.5 13.6 32.97 13.6 31.1C13.6 29.23 12.07 27.7 10.2 27.7ZM0 0.5V3.9H3.4L9.52 16.803L7.225 20.968C6.953 21.444 6.8 22.005 6.8 22.6C6.8 24.47 8.33 26 10.2 26H30.6V22.6H10.914C10.676 22.6 10.489 22.413 10.489 22.175L10.54 21.971L12.07 19.2H24.735C26.01 19.2 27.132 18.503 27.71 17.449L33.796 6.416C33.932 6.178 34 5.889 34 5.6C34 4.665 33.235 3.9 32.3 3.9H7.157L5.559 0.5H0ZM27.2 27.7C25.33 27.7 23.817 29.23 23.817 31.1C23.817 32.97 25.33 34.5 27.2 34.5C29.07 34.5 30.6 32.97 30.6 31.1C30.6 29.23 29.07 27.7 27.2 27.7Z" fill="#313131"/>
</svg>
