<svg width="104" height="104" viewBox="0 0 104 104" fill="none" xmlns="http://www.w3.org/2000/svg">
<path d="M81.12 29.12C84.5663 29.12 87.36 26.3263 87.36 22.88C87.36 19.4337 84.5663 16.64 81.12 16.64C77.6738 16.64 74.88 19.4337 74.88 22.88C74.88 26.3263 77.6738 29.12 81.12 29.12Z" stroke="black" stroke-width="4" stroke-miterlimit="10" stroke-linecap="round"/>
<path d="M97.76 11.44C97.76 8.56753 95.4325 6.24001 92.56 6.24001C92.2355 6.24001 61.6179 6.24417 61.6179 6.24417C58.8515 6.24417 56.2037 6.09857 54.6687 7.63361L7.39234 54.9078C5.85522 56.4429 5.85522 58.9347 7.39234 60.4698L43.5303 96.6077C45.0653 98.1427 47.5571 98.1427 49.0922 96.6077L96.3664 49.3314C97.9015 47.7984 97.7559 45.213 97.7559 42.3842C97.7559 42.3842 97.76 11.7645 97.76 11.44Z" stroke="black" stroke-width="4" stroke-miterlimit="10" stroke-linecap="round"/>
</svg>
