<svg width="215" height="215" viewBox="0 0 215 215" fill="none" xmlns="http://www.w3.org/2000/svg">
<path d="M42.8 179.4C48.8191 167.544 58.0036 157.587 69.3355 150.631C80.6673 143.676 93.7038 139.994 107 139.994C120.296 139.994 133.333 143.676 144.665 150.631C155.996 157.587 165.181 167.544 171.2 179.4M203 108C203 161.019 160.019 204 107 204C53.9807 204 11 161.019 11 108C11 54.9807 53.9807 12 107 12C160.019 12 203 54.9807 203 108ZM147 100C147 122.091 129.091 140 107 140C84.9086 140 67 122.091 67 100C67 77.9086 84.9086 60 107 60C129.091 60 147 77.9086 147 100Z" stroke="black" stroke-width="12" stroke-linecap="round" stroke-linejoin="round"/>
</svg>
