<svg width="73" height="73" viewBox="0 0 73 73" fill="none" xmlns="http://www.w3.org/2000/svg">
<path d="M53.4304 24.8483C55.4924 24.8483 57.164 23.1767 57.164 21.1146C57.164 19.0526 55.4924 17.381 53.4304 17.381C51.3683 17.381 49.6967 19.0526 49.6967 21.1146C49.6967 23.1767 51.3683 24.8483 53.4304 24.8483Z" fill="black"/>
<path d="M63.0864 11.4586C59.739 7.98237 54.9753 6.1799 49.5679 6.1799H23.0459C11.8448 6.1799 4.37744 13.6473 4.37744 24.8483V51.2416C4.37744 56.7778 6.17991 61.5415 9.78485 65.0176C13.261 68.3651 17.896 70.0388 23.1746 70.0388H49.4392C54.9753 70.0388 59.6102 68.2363 62.9577 65.0176C66.4339 61.6702 68.2363 56.9065 68.2363 51.3704V24.8483C68.2363 19.4409 66.4339 14.806 63.0864 11.4586ZM62.5714 51.3704C62.5714 55.3616 61.1552 58.5803 58.8378 60.769C56.5203 62.9577 53.3016 64.1164 49.4392 64.1164H23.1746C19.3122 64.1164 16.0935 62.9577 13.776 60.769C11.4586 58.4515 10.2998 55.2328 10.2998 51.2416V24.8483C10.2998 20.9859 11.4586 17.7672 13.776 15.4497C15.9647 13.261 19.3122 12.1023 23.1746 12.1023H49.6967C53.5591 12.1023 56.7778 13.261 59.0952 15.5785C61.284 17.896 62.5714 21.1146 62.5714 24.8483V51.3704Z" fill="black"/>
<path fill-rule="evenodd" clip-rule="evenodd" d="M35.9999 50.0592L47.3755 38.6727L47.377 38.6712C47.9059 38.1401 48.3156 37.5025 48.5791 36.8008C48.8427 36.0985 48.9537 35.348 48.9047 34.5994C48.8556 33.8507 48.6476 33.1212 48.2945 32.4592C47.9475 31.8086 47.4681 31.2379 46.8873 30.7839C45.8355 30.0172 44.5431 29.6528 43.2449 29.7578C41.9338 29.8639 40.7056 30.4415 39.7877 31.3837L39.7695 31.4024L36.0001 35.1719L32.0393 31.2111L32.032 31.2037C31.5547 30.7214 30.9855 30.3399 30.358 30.0818C29.7305 29.8237 29.0576 29.6942 28.3791 29.7011L28.3391 29.7015L28.299 29.7011C27.6325 29.6944 26.9712 29.8194 26.353 30.0687C25.7348 30.318 25.1719 30.6869 24.6965 31.1541C24.2211 31.6213 23.8426 32.1778 23.5826 32.7915C23.3225 33.4053 23.1861 34.0643 23.1812 34.7308L23.1811 34.743L23.181 34.7551C23.1706 35.5259 23.3137 36.2911 23.602 37.006C23.889 37.7181 24.3144 38.3661 24.8534 38.9127L35.9999 50.0592ZM22.0163 41.7325C21.101 40.8072 20.3789 39.709 19.8922 38.5018C19.4054 37.2947 19.1638 36.0027 19.1813 34.7013C19.1901 33.5086 19.4342 32.3294 19.8994 31.2311C20.3647 30.1329 21.0421 29.1373 21.8927 28.3012C22.7434 27.4652 23.7506 26.8052 24.8568 26.3591C25.9629 25.9129 27.1462 25.6894 28.3388 25.7013C29.5528 25.689 30.7569 25.9207 31.8797 26.3826C32.9735 26.8325 33.9684 27.492 34.8086 28.3235C34.8308 28.3455 34.8529 28.3676 34.8749 28.3899L36.0001 29.515L36.9226 28.5925C36.9801 28.5335 37.0383 28.4753 37.0972 28.4179C38.6696 26.8861 40.7291 25.9483 42.9223 25.7709C45.1976 25.5868 47.4625 26.2335 49.2976 27.5913C50.3422 28.3957 51.2034 29.4134 51.8239 30.5767C52.4444 31.74 52.8099 33.0222 52.8961 34.3378C52.9823 35.6534 52.7872 36.9723 52.3239 38.2066C51.8605 39.4409 51.1395 40.5624 50.2088 41.4963L38.3963 53.32C38.0819 53.6348 37.7083 53.8844 37.2971 54.0543C36.8858 54.2242 36.445 54.3111 36.0001 54.31C35.5551 54.3111 35.1143 54.2242 34.7031 54.0543C34.2919 53.8844 33.9183 53.6348 33.6038 53.32L22.0163 41.7325ZM36.0001 50.915L36.0026 50.9212L36.0001 50.915Z" fill="black"/>
</svg>
