<svg width="103" height="103" viewBox="0 0 103 103" fill="none" xmlns="http://www.w3.org/2000/svg">
<path fill-rule="evenodd" clip-rule="evenodd" d="M0 17.1616C0 9.89265 5.95603 4 13.3032 4H89.6968C97.0442 4 103 9.89267 103 17.1616V71.1478C103 78.4169 97.0441 84.3094 89.6968 84.3094H66.9337C64.6733 84.3094 62.5053 85.1978 60.9067 86.7794L50.7174 96.8603C46.0972 101.431 38.1968 98.1936 38.1968 91.729C38.1968 87.6313 34.8392 84.3094 30.6973 84.3094H13.3032C5.95605 84.3094 0 78.417 0 71.1478V17.1616ZM13.3032 8.72872C8.59572 8.72872 4.77958 12.5042 4.77958 17.1616V71.1478C4.77958 75.8053 8.5957 79.5807 13.3032 79.5807H30.6973C37.4788 79.5807 42.9764 85.0197 42.9764 91.729C42.9764 93.981 45.7286 95.1086 47.3377 93.5166L57.527 83.4357C60.022 80.9673 63.4056 79.5807 66.9337 79.5807H89.6968C94.4044 79.5807 98.2204 75.8053 98.2204 71.1478V17.1616C98.2204 12.5042 94.4044 8.72872 89.6968 8.72872H13.3032Z" fill="black"/>
<path fill-rule="evenodd" clip-rule="evenodd" d="M79.6995 59.0108C79.6995 60.3166 78.6296 61.3751 77.3097 61.3751H24.7343C23.4145 61.3751 22.3445 60.3166 22.3445 59.0108C22.3445 57.705 23.4145 56.6464 24.7343 56.6464H77.3097C78.6296 56.6464 79.6995 57.705 79.6995 59.0108Z" fill="black"/>
<path fill-rule="evenodd" clip-rule="evenodd" d="M79.6995 43.8789C79.6995 45.1847 78.6296 46.2432 77.3097 46.2432H24.7343C23.4145 46.2432 22.3445 45.1847 22.3445 43.8789C22.3445 42.5731 23.4145 41.5145 24.7343 41.5145H77.3097C78.6296 41.5145 79.6995 42.5731 79.6995 43.8789Z" fill="black"/>
<path fill-rule="evenodd" clip-rule="evenodd" d="M79.6995 28.747C79.6995 30.0528 78.6296 31.1113 77.3097 31.1113H24.7343C23.4145 31.1113 22.3445 30.0528 22.3445 28.747C22.3445 27.4412 23.4145 26.3826 24.7343 26.3826H77.3097C78.6296 26.3826 79.6995 27.4412 79.6995 28.747Z" fill="black"/>
</svg>
