<svg width="111" height="121" viewBox="0 0 121 121" fill="none" xmlns="http://www.w3.org/2000/svg">
<path d="M90.52 89.4H31.707L17.3385 10.399C17.1704 9.45292 16.6769 8.59535 15.9433 7.97466C15.2098 7.35397 14.2824 7.0092 13.3215 7H4M90.52 89.4C84.8315 89.4 80.22 94.0115 80.22 99.7C80.22 105.389 84.8315 110 90.52 110C96.2085 110 100.82 105.389 100.82 99.7C100.82 94.0115 96.2085 89.4 90.52 89.4ZM27.9475 68.8H92.6315C94.5574 68.8059 96.4238 68.1327 97.9026 66.8988C99.3813 65.665 100.378 63.9493 100.717 62.0535L107 27.6H20.48M47.26 99.7C47.26 105.389 42.6485 110 36.96 110C31.2715 110 26.66 105.389 26.66 99.7C26.66 94.0115 31.2715 89.4 36.96 89.4C42.6485 89.4 47.26 94.0115 47.26 99.7Z" stroke="black" stroke-width="7" stroke-linecap="round" stroke-linejoin="round"/>
</svg>
