<svg width="112" height="112" viewBox="0 0 112 112" fill="none" xmlns="http://www.w3.org/2000/svg">
<path d="M82.3718 97.5674L82.3684 97.5656L57.3973 84.4245L56.0003 83.6893L54.6032 84.4244L29.6329 97.5626C29.6327 97.5627 29.6325 97.5628 29.6322 97.563C29.5458 97.608 29.4487 97.6281 29.3517 97.6209C29.2544 97.6138 29.1609 97.5796 29.0817 97.5219C29.0025 97.4643 28.9406 97.3854 28.9035 97.294C28.8664 97.203 28.8554 97.1034 28.8717 97.0064C28.8718 97.006 28.8718 97.0056 28.8719 97.0052L33.6427 69.1788L33.9092 67.6247L32.7803 66.5239L12.5664 46.8134L12.5659 46.8129C12.4955 46.7443 12.4454 46.657 12.4217 46.561C12.398 46.465 12.4016 46.3641 12.4321 46.2701C12.4627 46.1761 12.5188 46.0927 12.5939 46.0294C12.6689 45.966 12.76 45.9252 12.8567 45.9111L12.8568 45.9111L40.7825 41.8514L42.3437 41.6244L43.0415 40.2095L55.5292 14.8873C55.5728 14.7988 55.6402 14.7246 55.7235 14.6728C55.8067 14.6211 55.9025 14.5938 56.0002 14.5938C56.0978 14.5938 56.1936 14.6211 56.2768 14.6728C56.3601 14.7246 56.4275 14.7988 56.4711 14.8873L68.9588 40.2095L69.6566 41.6244L71.2178 41.8514L99.1411 45.9111L99.143 45.9114C99.2398 45.9254 99.3308 45.9662 99.4059 46.0295C99.4811 46.0928 99.5372 46.1762 99.5678 46.2702C99.5984 46.3643 99.602 46.4651 99.5783 46.5612C99.5546 46.6573 99.5046 46.7445 99.4341 46.8131L99.4339 46.8134L79.22 66.5239L78.0912 67.6247L78.3576 69.1788L83.1288 97.0074C83.1288 97.0077 83.1289 97.008 83.1289 97.0083C83.1418 97.0841 83.138 97.1618 83.1178 97.236C83.0976 97.3104 83.0614 97.3794 83.0119 97.438C82.9625 97.4968 82.9009 97.5438 82.8316 97.5761C82.7624 97.6083 82.6871 97.625 82.6109 97.625L82.6111 99.0808L82.606 97.625C82.5245 97.6253 82.4441 97.6055 82.3718 97.5674Z" stroke="black" stroke-width="6"/>
</svg>
